<?xml version="1.0" encoding="utf-8"?>
<!-- Generator: Adobe Illustrator 16.0.0, SVG Export Plug-In . SVG Version: 6.00 Build 0)  -->
<!DOCTYPE svg PUBLIC "-//W3C//DTD SVG 1.1//EN" "http://www.w3.org/Graphics/SVG/1.1/DTD/svg11.dtd">
<svg version="1.1" id="Layer_1" xmlns="http://www.w3.org/2000/svg" xmlns:xlink="http://www.w3.org/1999/xlink" x="0px" y="0px"
	 width="1000px" height="572px" viewBox="0 0 1000 572" enable-background="new 0 0 1000 572" xml:space="preserve">
<image display="none" overflow="visible" width="1030" height="633" xlink:href="4E584A2F.jpg"  transform="matrix(0.9999 0 0 0.9999 -15 28)">
</image>
<g>
	<g>
		<path fill-rule="evenodd" clip-rule="evenodd" fill="#020202" d="M313.176,306.031c-22.084-0.418-43.762-3.021-64.585-11.046
			c-24.444-9.423-41.024-26.223-50.109-50.886c-9.348-25.375-15.211-51.624-20.896-77.947c-1.088-5.039-2.405-10.058-3.032-15.158
			c-0.666-5.414-3.365-8.876-8.306-10.704c-5.128-1.896-7.101-5.485-6.68-10.864c0.909-11.624,1.82-23.255,2.331-34.9
			c0.27-6.164,2.97-9.557,8.728-11.758c20.919-8.002,42.548-13.153,64.581-16.708c36.824-5.942,73.87-7.526,111.077-4.944
			c24.853,1.723,49.018,7.095,72.838,14.183c16.936,5.04,34.029,9.319,51.794,10.029c3.201,0.128,4.149,1.117,3.794,4.49
			c-2.335,22.19-4.505,44.399-6.534,66.62c-0.338,3.71-2.357,6.471-3.834,9.582c-5.22,10.987-8.546,22.686-12.731,34.061
			c-4.072,11.069-8.196,22.106-12.784,32.982c-16.331,38.713-46.564,59.882-86.468,68.908
			C339.479,304.882,326.393,306.107,313.176,306.031z M316.411,93.772c-15.022-0.204-29.965,0.819-44.76,3.358
			c-14.292,2.453-28.306,5.874-40.889,13.597c-9.226,5.662-14.996,13.563-16.063,24.468c-0.519,5.293-0.985,10.649-0.772,15.948
			c1.074,26.758,6.213,52.761,14.73,78.148c6.484,19.329,19.579,32.042,38.863,37.583c31.03,8.916,62.173,8.412,92.758-2.265
			c15.987-5.58,29.449-15.379,37.859-30.241c14.699-25.975,25.384-53.656,26.957-83.739c1.511-28.916-7.217-37.141-29.995-45.657
			c-1.088-0.407-2.199-0.756-3.308-1.102C367.241,96.186,341.96,93.954,316.411,93.772z"/>
		<path fill-rule="evenodd" clip-rule="evenodd" fill="#020202" d="M688.16,59.934c45.32,0.533,90.045,5.194,133.201,20.007
			c17.615,6.046,16.104,4.738,17.18,23.043c0.52,8.812,1.162,17.619,1.885,26.417c0.418,5.083-1.232,8.739-6.191,10.671
			c-5.184,2.021-7.76,5.644-8.91,11.389c-5.896,29.499-12.15,58.91-21.838,87.5c-8.951,26.418-25.064,45.797-51.584,55.875
			c-10.627,4.04-21.523,6.879-32.734,8.6c-26.98,4.14-53.799,3.736-80.229-3.59c-40.084-11.112-67.295-36.268-81.449-75.467
			c-5.924-16.405-11.924-32.783-17.938-49.154c-2.064-5.615-4.027-11.348-8.266-15.781c-1.65-1.725-0.994-3.433-0.664-5.11
			c4.357-22.195,8.77-44.379,13.246-66.549c0.355-1.764,0.164-3.912,3.063-4.356c19.623-3.005,38.309-9.787,57.514-14.49
			C631.953,62.201,659.906,59.769,688.16,59.934z M683.908,93.801c-17.359-0.146-34.602,1.229-51.684,4.268
			c-13.932,2.478-27.641,5.754-40.205,12.695c-8.521,4.708-13.809,11.572-15.863,21.194c-2.164,10.128-1.729,20.189-0.174,30.269
			c3.449,22.383,11.443,43.279,21.047,63.636c8.09,17.145,20.811,29.833,38.277,36.878c32.357,13.048,65.584,13.469,98.752,3.577
			c16.5-4.921,28.963-15.58,35.271-32.127c10.703-28.07,16.451-57.203,16.721-87.227c0.213-23.819-6.869-33.484-29.023-42.25
			c-0.771-0.306-1.545-0.611-2.328-0.884C731.764,95.81,707.959,93.916,683.908,93.801z"/>
		<path fill-rule="evenodd" clip-rule="evenodd" fill="#08A4AB" d="M512.395,164.447c-3.451,0.56-4.229-0.739-3.525-4.192
			c5.041-24.764,9.893-49.565,14.822-74.351c0.68-3.417,4.85-5.363,7.854-3.77c1.469,0.777,0.918,2.016,0.711,3.053
			c-5.053,25.438-10.18,50.862-15.178,76.31C516.498,164.443,514.789,164.76,512.395,164.447z"/>
		<path fill-rule="evenodd" clip-rule="evenodd" fill="#08A4AB" d="M494.362,160.667c3.752-25.291,7.507-50.581,11.257-75.87
			c0.693-4.681,4.33-2.506,6.711-2.665c2.949-0.198,1.695,2.127,1.48,3.567c-3.73,25.126-7.6,50.232-11.152,75.383
			c-0.664,4.709-3.719,3.214-6.226,3.368C493.292,164.642,494.171,162.427,494.362,160.667z"/>
		<path fill-rule="evenodd" clip-rule="evenodd" fill="#08A4AB" d="M495.51,86.463c-2.465,25.108-4.952,49.761-7.247,74.432
			c-0.422,4.534-3.423,3.5-6.101,3.598c-3.418,0.126-2.561-2.268-2.373-4.135c2.48-24.651,5.145-49.286,7.357-73.96
			c0.399-4.459,2.436-4.46,5.706-4.443C497.177,81.978,495.065,85.04,495.51,86.463z"/>
	</g>
	<g>
		<path fill="#020202" d="M382.711,533.796c-1.39,1.813-3.317,3.185-5.78,4.117c-2.463,0.933-5.261,1.398-8.392,1.398
			c-3.22,0-6.07-0.729-8.551-2.19c-2.48-1.46-4.394-3.549-5.74-6.268c-1.346-2.718-2.045-5.889-2.098-9.514v-3.009
			c0-5.806,1.39-10.34,4.17-13.604c2.779-3.263,6.659-4.896,11.638-4.896c4.275,0,7.67,1.061,10.187,3.181s4.029,5.168,4.54,9.145
			h-6.545c-0.739-4.627-3.422-6.941-8.049-6.941c-2.991,0-5.265,1.075-6.822,3.225s-2.362,5.303-2.415,9.461v2.947
			c0,4.142,0.875,7.356,2.626,9.646c1.75,2.289,4.183,3.435,7.297,3.435c3.413,0,5.841-0.771,7.284-2.311v-7.48h-7.917v-5.067
			h14.568V533.796z"/>
		<path fill="#020202" d="M426.689,529.838h-14.884l-3.114,8.946h-6.941l14.515-38.425h5.991l14.542,38.425h-6.967L426.689,529.838z
			 M413.679,524.454h11.137l-5.568-15.94L413.679,524.454z"/>
		<path fill="#020202" d="M464.941,500.359l11.084,29.452l11.058-29.452h8.63v38.425h-6.65v-12.668l0.66-16.942l-11.349,29.61
			h-4.776L462.276,509.2l0.66,16.916v12.668h-6.65v-38.425H464.941z"/>
		<path fill="#020202" d="M525.783,538.784h-6.65v-38.425h6.65V538.784z"/>
		<path fill="#020202" d="M579.605,538.784h-6.677l-17.127-27.262v27.262h-6.677v-38.425h6.677l17.18,27.367v-27.367h6.624V538.784z
			"/>
		<path fill="#020202" d="M632.082,533.796c-1.39,1.813-3.316,3.185-5.779,4.117s-5.261,1.398-8.393,1.398
			c-3.219,0-6.069-0.729-8.55-2.19c-2.481-1.46-4.395-3.549-5.74-6.268c-1.346-2.718-2.045-5.889-2.098-9.514v-3.009
			c0-5.806,1.39-10.34,4.169-13.604c2.78-3.263,6.659-4.896,11.639-4.896c4.275,0,7.671,1.061,10.187,3.181s4.029,5.168,4.539,9.145
			h-6.545c-0.738-4.627-3.422-6.941-8.049-6.941c-2.991,0-5.265,1.075-6.822,3.225c-1.557,2.149-2.361,5.303-2.414,9.461v2.947
			c0,4.142,0.875,7.356,2.626,9.646c1.75,2.289,4.183,3.435,7.297,3.435c3.413,0,5.841-0.771,7.283-2.311v-7.48h-7.917v-5.067
			h14.567V533.796z"/>
	</g>
	<g>
		<path fill-rule="evenodd" clip-rule="evenodd" fill="#020202" d="M93.184,429.032c3.433-1.291,6.034-3.297,7.802-6.018
			c1.768-2.719,2.652-5.999,2.652-9.842c0-6.662-2.491-11.745-7.471-15.247c-4.98-3.501-12.248-5.252-21.8-5.252h-26.67v74.247
			h30.137c9.043-0.067,15.867-1.929,20.474-5.584c4.606-3.654,6.91-9.119,6.91-16.395c0-4.011-1.037-7.411-3.11-10.198
			C100.033,431.957,97.059,430.053,93.184,429.032z M65.596,406.442h8.771c4.011,0,6.917,0.69,8.72,2.071
			c1.802,1.381,2.703,3.64,2.703,6.776c0,2.729-0.833,4.791-2.499,6.188c-1.666,1.398-4.454,2.115-8.363,2.148h-9.332V406.442z
			 M84.77,450.935c-1.734,1.479-4.216,2.218-7.445,2.218H65.596v-17.797H78.14c6.153,0.034,9.23,3.146,9.23,9.332
			C87.37,447.373,86.503,449.455,84.77,450.935z"/>
		<path fill-rule="evenodd" clip-rule="evenodd" fill="#020202" d="M171.33,427.924c2.091-3.396,3.136-7.675,3.136-12.837
			c0-7.131-2.482-12.649-7.445-16.556c-4.964-3.904-11.848-5.857-20.652-5.857h-29.22v74.247h17.899v-26.262h9.689l13.105,26.262
			h19.173v-0.766l-15.502-29.979C165.966,434.071,169.239,431.32,171.33,427.924z M154.042,424.207
			c-1.717,1.79-4.275,2.684-7.674,2.684h-11.321v-20.448h11.321c3.365,0,5.915,0.912,7.649,2.735
			c1.734,1.822,2.601,4.337,2.601,7.54S155.759,422.418,154.042,424.207z"/>
		<path fill-rule="evenodd" clip-rule="evenodd" fill="#020202" d="M234.585,396.142c-4.93-2.991-10.539-4.488-16.828-4.488
			c-6.358,0-12.027,1.514-17.007,4.539c-4.98,3.026-8.805,7.317-11.474,12.876c-2.669,5.559-4.003,11.976-4.003,19.25v4.182
			c0.135,7.004,1.572,13.207,4.309,18.612c2.736,5.406,6.553,9.562,11.448,12.469c4.895,2.906,10.504,4.359,16.828,4.359
			s11.958-1.504,16.905-4.513s8.762-7.3,11.448-12.876c2.685-5.575,4.028-11.983,4.028-19.225v-3.417
			c-0.034-7.139-1.42-13.47-4.156-18.995C243.348,403.392,239.515,399.133,234.585,396.142z M232.036,431.633
			c-0.035,7.208-1.275,12.732-3.723,16.573c-2.448,3.842-5.933,5.763-10.454,5.763c-4.76,0-8.346-1.955-10.759-5.864
			c-2.415-3.909-3.621-9.502-3.621-16.777l0.051-5.456c0.51-13.463,5.252-20.194,14.228-20.194c4.589,0,8.116,1.913,10.581,5.737
			c2.464,3.824,3.697,9.426,3.697,16.803V431.633z"/>
		<polygon fill-rule="evenodd" clip-rule="evenodd" fill="#020202" points="301.692,392.674 285.68,415.978 279.458,425.412 
			279.458,392.674 261.56,392.674 261.56,466.921 279.458,466.921 279.458,447.339 286.802,439.282 302.61,466.921 323.823,466.921 
			298.734,425.514 323.823,392.674 		"/>
		<polygon fill-rule="evenodd" clip-rule="evenodd" fill="#020202" points="330.45,466.921 381.597,466.921 381.597,453.152 
			348.349,453.152 348.349,435.406 376.498,435.406 376.498,422.148 348.349,422.148 348.349,406.493 381.699,406.493 
			381.699,392.674 330.45,392.674 		"/>
		<polygon fill-rule="evenodd" clip-rule="evenodd" fill="#020202" points="435.139,438.874 408.877,392.674 390.978,392.674 
			390.978,466.921 408.877,466.921 408.877,420.721 435.19,466.921 452.987,466.921 452.987,392.674 435.139,392.674 		"/>
		<path fill-rule="evenodd" clip-rule="evenodd" fill="#020202" d="M524.936,439.537h12.441v11.524
			c-2.277,2.074-5.744,3.111-10.402,3.111c-5.439,0-9.426-1.861-11.957-5.584c-2.533-3.723-3.801-9.289-3.801-16.701V427.4
			c0.035-7.07,1.275-12.51,3.723-16.318c2.449-3.807,5.916-5.711,10.404-5.711c3.738,0,6.629,0.885,8.668,2.651
			c2.039,1.769,3.365,4.727,3.979,8.873h17.234c-0.85-8.396-3.832-14.712-8.949-18.944s-12.297-6.349-21.545-6.349
			c-6.322,0-11.891,1.471-16.699,4.411c-4.813,2.941-8.508,7.14-11.092,12.596s-3.875,11.839-3.875,19.148l0.051,6.425
			c0.408,10.606,3.519,18.886,9.333,24.834c5.813,5.95,13.58,8.924,23.303,8.924c6.324,0,12.137-0.936,17.441-2.805
			c0.021-0.008,0.041-0.017,0.063-0.024v2.639h12v-9.984c0.008-0.008,0.016-0.016,0.023-0.023v-30.494h-30.342V439.537z"/>
		<polygon fill-rule="evenodd" clip-rule="evenodd" fill="#020202" points="585.666,392.674 567.768,392.674 567.768,466.921 
			616.824,466.921 616.824,453.152 585.666,453.152 		"/>
		<path fill-rule="evenodd" clip-rule="evenodd" fill="#020202" d="M648.898,392.674l-27.232,74.247h19.123l4.283-13.87h24.529
			l4.334,13.87h19.225l-27.434-74.247H648.898z M649.357,439.231l7.955-25.752l8.006,25.752H649.357z"/>
		<path fill-rule="evenodd" clip-rule="evenodd" fill="#020202" d="M721.129,407.283c1.852-1.41,4.377-2.116,7.572-2.116
			c3.162,0,5.668,0.834,7.521,2.499c1.854,1.666,2.779,4.012,2.779,7.037h17.848c0-4.521-1.172-8.542-3.518-12.061
			s-5.635-6.229-9.867-8.133c-4.232-1.903-9.02-2.856-14.355-2.856c-5.475,0-10.402,0.876-14.789,2.627
			c-4.385,1.751-7.775,4.199-10.172,7.343c-2.396,3.145-3.596,6.774-3.596,10.888c0,8.261,4.811,14.754,14.432,19.479
			c2.957,1.462,6.764,2.975,11.422,4.538c4.658,1.564,7.912,3.077,9.766,4.539s2.779,3.501,2.779,6.119
			c0,2.312-0.859,4.104-2.574,5.38c-1.719,1.274-4.055,1.912-7.012,1.912c-4.625,0-7.965-0.943-10.021-2.83
			s-3.084-4.819-3.084-8.797h-17.951c0,4.896,1.232,9.222,3.697,12.979s6.137,6.714,11.016,8.873
			c4.877,2.159,10.326,3.237,16.344,3.237c8.531,0,15.246-1.853,20.143-5.558c4.895-3.705,7.342-8.805,7.342-15.299
			c0-8.124-4.012-14.499-12.033-19.122c-3.299-1.904-7.514-3.68-12.646-5.329c-5.135-1.648-8.721-3.246-10.76-4.794
			c-2.041-1.546-3.061-3.271-3.061-5.176C718.35,410.488,719.275,408.694,721.129,407.283z"/>
		<path fill-rule="evenodd" clip-rule="evenodd" fill="#020202" d="M788.592,407.283c1.852-1.41,4.377-2.116,7.572-2.116
			c3.162,0,5.668,0.834,7.521,2.499c1.854,1.666,2.779,4.012,2.779,7.037h17.848c0-4.521-1.172-8.542-3.518-12.061
			s-5.635-6.229-9.867-8.133c-4.232-1.903-9.02-2.856-14.355-2.856c-5.475,0-10.402,0.876-14.789,2.627
			c-4.385,1.751-7.775,4.199-10.172,7.343c-2.396,3.145-3.596,6.774-3.596,10.888c0,8.261,4.811,14.754,14.432,19.479
			c2.957,1.462,6.764,2.975,11.422,4.538c4.658,1.564,7.912,3.077,9.766,4.539s2.779,3.501,2.779,6.119
			c0,2.312-0.859,4.104-2.574,5.38c-1.719,1.274-4.055,1.912-7.012,1.912c-4.625,0-7.965-0.943-10.021-2.83
			s-3.084-4.819-3.084-8.797h-17.951c0,4.896,1.232,9.222,3.697,12.979s6.137,6.714,11.016,8.873
			c4.877,2.159,10.326,3.237,16.344,3.237c8.531,0,15.246-1.853,20.143-5.558c4.895-3.705,7.342-8.805,7.342-15.299
			c0-8.124-4.012-14.499-12.033-19.122c-3.299-1.904-7.514-3.68-12.646-5.329c-5.135-1.648-8.721-3.246-10.76-4.794
			c-2.041-1.546-3.061-3.271-3.061-5.176C785.813,410.488,786.738,408.694,788.592,407.283z"/>
		<polygon fill-rule="evenodd" clip-rule="evenodd" fill="#020202" points="835.58,466.921 886.727,466.921 886.727,453.152 
			853.479,453.152 853.479,435.406 881.629,435.406 881.629,422.148 853.479,422.148 853.479,406.493 886.83,406.493 
			886.83,392.674 835.58,392.674 		"/>
		<path fill-rule="evenodd" clip-rule="evenodd" fill="#020202" d="M940.27,427.962c-3.299-1.904-7.514-3.68-12.646-5.329
			c-5.135-1.648-8.721-3.246-10.76-4.794c-2.041-1.546-3.061-3.271-3.061-5.176c0-2.175,0.926-3.969,2.779-5.38
			c1.852-1.41,4.377-2.116,7.572-2.116c3.162,0,5.668,0.834,7.521,2.499c1.854,1.666,2.779,4.012,2.779,7.037h17.848
			c0-4.521-1.172-8.542-3.518-12.061s-5.635-6.229-9.867-8.133c-4.232-1.903-9.02-2.856-14.355-2.856
			c-5.475,0-10.402,0.876-14.789,2.627c-4.385,1.751-7.775,4.199-10.172,7.343c-2.396,3.145-3.596,6.774-3.596,10.888
			c0,8.261,4.811,14.754,14.432,19.479c2.957,1.462,6.764,2.975,11.422,4.538c4.658,1.564,7.912,3.077,9.766,4.539
			s2.779,3.501,2.779,6.119c0,2.312-0.859,4.104-2.574,5.38c-1.719,1.274-4.055,1.912-7.012,1.912c-4.625,0-7.965-0.943-10.021-2.83
			s-3.084-4.819-3.084-8.797h-17.951c0,4.896,1.232,9.222,3.697,12.979s6.137,6.714,11.016,8.873
			c4.877,2.159,10.326,3.237,16.344,3.237c8.531,0,15.246-1.853,20.143-5.558c4.895-3.705,7.342-8.805,7.342-15.299
			C952.303,438.96,948.291,432.585,940.27,427.962z"/>
	</g>
</g>
</svg>
