<?xml version="1.0" encoding="utf-8"?>
<!-- Generator: Adobe Illustrator 16.0.0, SVG Export Plug-In . SVG Version: 6.00 Build 0)  -->
<!DOCTYPE svg PUBLIC "-//W3C//DTD SVG 1.1//EN" "http://www.w3.org/Graphics/SVG/1.1/DTD/svg11.dtd">
<svg version="1.1" id="Layer_1" xmlns="http://www.w3.org/2000/svg" xmlns:xlink="http://www.w3.org/1999/xlink" x="0px" y="0px"
	 width="406.779px" height="271.187px" viewBox="0 0 406.779 271.187" enable-background="new 0 0 406.779 271.187"
	 xml:space="preserve">
<g>
	<path fill="#74AAB8" d="M187.173,202.894c0,18.232-6.904,33.508-20.691,45.817c-13.798,12.32-31.038,18.475-51.729,18.475
		c-20.206,0-37.688-7.019-52.468-21.06c-14.78-14.041-22.17-34.365-22.17-60.968c0-15.762,3.199-31.523,9.607-47.295
		c6.398-15.762,14.651-30.542,24.754-44.339c10.093-13.788,21.063-26.107,32.887-36.95c11.824-10.832,23.151-19.213,33.993-25.125
		l36.95,36.21c-5.912,2.47-12.077,6.165-18.475,11.085c-6.408,4.93-12.32,10.474-17.736,16.629
		c-5.426,6.165-9.86,13.059-13.302,20.692c-3.452,7.643-5.173,15.147-5.173,22.537c18.222,2.47,33.369,9.239,45.446,20.324
		C181.133,170.011,187.173,184.673,187.173,202.894z M379.311,202.894c0,18.232-6.904,33.508-20.692,45.817
		c-13.797,12.32-31.037,18.475-51.729,18.475c-20.207,0-37.689-7.019-52.469-21.06c-14.78-14.041-22.17-34.365-22.17-60.968
		c0-15.762,3.199-31.523,9.607-47.295c6.397-15.762,14.651-30.542,24.754-44.339c10.093-13.788,21.063-26.107,32.887-36.95
		c11.824-10.832,23.152-19.213,33.994-25.125l36.949,36.21c-5.912,2.47-12.077,6.165-18.475,11.085
		c-6.408,4.93-12.32,10.474-17.736,16.629c-5.426,6.165-9.859,13.059-13.301,20.692c-3.453,7.643-5.174,15.147-5.174,22.537
		c18.222,2.47,33.369,9.239,45.446,20.324C373.27,170.011,379.311,184.673,379.311,202.894z"/>
</g>
<g>
	<path fill="#038BA4" d="M165.471,176.829c0,18.232-6.904,33.508-20.691,45.817c-13.798,12.32-31.038,18.475-51.729,18.475
		c-20.206,0-37.688-7.019-52.468-21.06c-14.78-14.041-22.17-34.365-22.17-60.968c0-15.762,3.199-31.523,9.607-47.295
		c6.398-15.762,14.651-30.542,24.754-44.339c10.093-13.788,21.063-26.107,32.887-36.95c11.824-10.832,23.151-19.213,33.993-25.125
		l36.95,36.21c-5.912,2.47-12.077,6.165-18.475,11.085c-6.408,4.93-12.32,10.474-17.736,16.629
		c-5.426,6.165-9.86,13.059-13.302,20.692c-3.452,7.643-5.173,15.147-5.173,22.537c18.222,2.47,33.369,9.239,45.446,20.324
		C159.431,143.946,165.471,158.608,165.471,176.829z M357.608,176.829c0,18.232-6.904,33.508-20.692,45.817
		c-13.797,12.32-31.037,18.475-51.729,18.475c-20.207,0-37.689-7.019-52.469-21.06c-14.78-14.041-22.169-34.365-22.169-60.968
		c0-15.762,3.199-31.523,9.607-47.295c6.397-15.762,14.651-30.542,24.754-44.339c10.093-13.788,21.063-26.107,32.887-36.95
		c11.824-10.832,23.152-19.213,33.994-25.125l36.949,36.21c-5.912,2.47-12.077,6.165-18.475,11.085
		c-6.408,4.93-12.32,10.474-17.736,16.629c-5.426,6.165-9.859,13.059-13.301,20.692c-3.453,7.643-5.174,15.147-5.174,22.537
		c18.222,2.47,33.369,9.239,45.446,20.324C351.567,143.946,357.608,158.608,357.608,176.829z"/>
</g>
</svg>
